<svg xmlns="http://www.w3.org/2000/svg" version="1.1" xmlns:xlink="http://www.w3.org/1999/xlink" viewBox="0 0 200 200"><rect width="200" height="200" fill="url('#gradient')"></rect><defs><linearGradient id="gradient" gradientTransform="rotate(360 0.5 0.5)"><stop offset="0%" stop-color="#333333"></stop><stop offset="100%" stop-color="#d73909"></stop></linearGradient></defs><g><g fill="#fdfdfd" transform="matrix(9.046616541353384,0,0,9.046616541353384,2.8371555652833536,163.41849870968582)" stroke="#ffffff" stroke-width="0.2"><path d="M12.24-14.22L12.24-11.57L7.97-11.57L7.97 0L4.54 0L4.54-11.57L0.35-11.57L0.35-14.22L12.24-14.22ZM21.13 0L17.84 0Q17.67-0.32 17.53-0.95L17.53-0.95Q16.62 0.20 14.99 0.20L14.99 0.20Q13.50 0.20 12.45-0.71Q11.41-1.61 11.41-2.98L11.41-2.98Q11.41-4.70 12.68-5.58Q13.95-6.46 16.37-6.46L16.37-6.46L17.38-6.46L17.38-7.01Q17.38-8.47 16.12-8.47L16.12-8.47Q14.95-8.47 14.95-7.31L14.95-7.31L11.66-7.31Q11.66-8.85 12.96-9.80Q14.27-10.76 16.29-10.76Q18.31-10.76 19.48-9.78Q20.65-8.79 20.68-7.07L20.68-7.07L20.68-2.39Q20.70-0.94 21.13-0.17L21.13-0.17L21.13 0ZM15.78-2.15L15.78-2.15Q16.40-2.15 16.80-2.41Q17.21-2.68 17.38-3.01L17.38-3.01L17.38-4.70L16.43-4.70Q14.71-4.70 14.71-3.15L14.71-3.15Q14.71-2.71 15.01-2.43Q15.31-2.15 15.78-2.15Z"></path></g></g></svg>